<svg xmlns="http://www.w3.org/2000/svg" viewBox="17.3 7.5 65.4 85"><path d="M77.8 62.9H22.4V12.4c0-2.7 2.2-4.9 4.9-4.9H73c2.7 0 4.9 2.2 4.9 4.9v50.5z" fill="#e15b64"/><path d="M30.7 73.9h-5.4c-1.8 0-3.2 1.1-3.2 2.4v13.8c0 1.3 1.5 2.4 3.2 2.4h5.4c1.8 0 3.2-1.1 3.2-2.4V76.3c0-1.3-1.4-2.4-3.2-2.4zM68.8 73.9h5.4c1.8 0 3.2 1.1 3.2 2.4v13.8c0 1.3-1.5 2.4-3.2 2.4h-5.4c-1.8 0-3.2-1.1-3.2-2.4V76.3c0-1.3 1.4-2.4 3.2-2.4z" fill="#333"/><path d="M77.8 80.9H22.2c-1.3 0-2.3-1-2.3-2.3V63.2c0-3 2.4-5.4 5.4-5.4h49.2c3 0 5.4 2.4 5.4 5.4v15.5c.1 1.2-.9 2.2-2.1 2.2z" fill="#333"/><path d="M63.4 25.2H36.6c-5 0-9.1 4.1-9.1 9.1V59h45V34.3c0-5-4.1-9.1-9.1-9.1z" fill="#333"/><path d="M66.7 32.5H33.3c-1.1 0-2 .9-2 2v8.2c0 1.1.9 2 2 2h33.5c1.1 0 2-.9 2-2v-8.2c0-1.1-.9-2-2.1-2z" fill="#fff"/><path fill="none" stroke="#fff" stroke-width="1.616" stroke-linecap="round" stroke-miterlimit="10" d="M38.7 73.2h22.6M38.7 68.7h22.6M38.7 64.2h22.6M38.7 59.7h22.6M38.7 55.2h22.6"/><path d="M81 83.2H19c-.9 0-1.7-.8-1.7-1.7v-3.4c0-.9.8-1.7 1.7-1.7h62c.9 0 1.7.8 1.7 1.7v3.4c0 .9-.7 1.7-1.7 1.7z" fill="#333"/><path d="M30.4 75h-6.2c-.8 0-1.4-.6-1.4-1.4v-2.1c0-.8.6-1.4 1.4-1.4h6.2c.8 0 1.4.6 1.4 1.4v2.1c0 .7-.6 1.4-1.4 1.4zM69.2 75h6.2c.8 0 1.4-.6 1.4-1.4v-2.1c0-.8-.6-1.4-1.4-1.4h-6.2c-.8 0-1.4.6-1.4 1.4v2.1c0 .7.7 1.4 1.4 1.4z" fill="#fff"/><path d="M29.9 58.1h-4.3V18c0-.2.1-.4.2-.5l2.7-3c.5-.6 1.4-.2 1.4.5v43.1zM69.7 58.1H74V18c0-.2-.1-.4-.2-.5l-2.7-3c-.5-.6-1.4-.2-1.4.5v43.1zM80 44.2h-3.8c-.6 0-1-.4-1-1v-8.1c0-.6.4-1 1-1H80c.6 0 1 .4 1 1v8.1c0 .5-.4 1-1 1z" fill="#333"/><path d="M71.9 31.4h4.2c1.1 0 2.1.9 2.1 2.1v11.3c0 1.1-.9 2.1-2.1 2.1h-3.7" fill="none" stroke="#333" stroke-width="1.501" stroke-miterlimit="10"/><path d="M19.5 44.2h3.8c.6 0 1-.4 1-1v-8.1c0-.6-.4-1-1-1h-3.8c-.6 0-1 .4-1 1v8.1c0 .5.4 1 1 1z" fill="#333"/><path d="M27.6 31.4h-4.2c-1.1 0-2.1.9-2.1 2.1v11.3c0 1.1.9 2.1 2.1 2.1h3.7" fill="none" stroke="#333" stroke-width="1.5" stroke-miterlimit="10"/></svg>